<?xml version="1.0" encoding="UTF-8"?>
<svg xmlns="http://www.w3.org/2000/svg" 
     width="1000" height="1000" 
     viewBox="0 0 1000 1000">
  <g fill="#000000">
    <rect x="591.11" y="90.00" width="318.89" height="31.54"/>
    <rect x="454.44" y="121.54" width="455.56" height="31.54"/>
    <rect x="363.33" y="153.08" width="546.67" height="31.54"/>
    <rect x="272.22" y="184.62" width="273.33" height="31.54"/>
    <rect x="727.78" y="184.62" width="182.22" height="31.54"/>
    <rect x="181.11" y="216.15" width="273.33" height="31.54"/>
    <rect x="727.78" y="216.15" width="182.22" height="31.54"/>
    <rect x="135.56" y="247.69" width="227.78" height="31.54"/>
    <rect x="727.78" y="247.69" width="182.22" height="31.54"/>
    <rect x="90.00" y="279.23" width="182.22" height="31.54"/>
    <rect x="727.78" y="279.23" width="182.22" height="31.54"/>
    <rect x="90.00" y="310.77" width="182.22" height="31.54"/>
    <rect x="727.78" y="310.77" width="182.22" height="31.54"/>
    <rect x="90.00" y="342.31" width="182.22" height="31.54"/>
    <rect x="727.78" y="342.31" width="182.22" height="31.54"/>
    <rect x="90.00" y="373.85" width="182.22" height="31.54"/>
    <rect x="727.78" y="373.85" width="182.22" height="31.54"/>
    <rect x="90.00" y="405.38" width="182.22" height="31.54"/>
    <rect x="727.78" y="405.38" width="182.22" height="31.54"/>
    <rect x="90.00" y="436.92" width="182.22" height="31.54"/>
    <rect x="727.78" y="436.92" width="182.22" height="31.54"/>
    <rect x="90.00" y="468.46" width="182.22" height="31.54"/>
    <rect x="727.78" y="468.46" width="182.22" height="31.54"/>
    <rect x="90.00" y="500.00" width="182.22" height="31.54"/>
    <rect x="727.78" y="500.00" width="182.22" height="31.54"/>
    <rect x="90.00" y="531.54" width="182.22" height="31.54"/>
    <rect x="727.78" y="531.54" width="182.22" height="31.54"/>
    <rect x="90.00" y="563.08" width="182.22" height="31.54"/>
    <rect x="727.78" y="563.08" width="182.22" height="31.54"/>
    <rect x="90.00" y="594.62" width="182.22" height="31.54"/>
    <rect x="727.78" y="594.62" width="182.22" height="31.54"/>
    <rect x="90.00" y="626.15" width="182.22" height="31.54"/>
    <rect x="727.78" y="626.15" width="182.22" height="31.54"/>
    <rect x="90.00" y="657.69" width="182.22" height="31.54"/>
    <rect x="727.78" y="657.69" width="182.22" height="31.54"/>
    <rect x="90.00" y="689.23" width="182.22" height="31.54"/>
    <rect x="727.78" y="689.23" width="182.22" height="31.54"/>
    <rect x="90.00" y="720.77" width="182.22" height="31.54"/>
    <rect x="727.78" y="720.77" width="182.22" height="31.54"/>
    <rect x="90.00" y="752.31" width="182.22" height="31.54"/>
    <rect x="727.78" y="752.31" width="182.22" height="31.54"/>
    <rect x="90.00" y="783.85" width="182.22" height="31.54"/>
    <rect x="727.78" y="783.85" width="182.22" height="31.54"/>
    <rect x="90.00" y="815.38" width="820.00" height="31.54"/>
    <rect x="90.00" y="846.92" width="820.00" height="31.54"/>
    <rect x="90.00" y="878.46" width="820.00" height="31.54"/>
  </g>
</svg>