<?xml version="1.0" encoding="UTF-8"?>
<svg xmlns="http://www.w3.org/2000/svg" 
     width="1000" height="1000" 
     viewBox="0 0 1000 1000">
  <g fill="#000000">
    <rect x="90.00" y="90.00" width="780.95" height="32.80"/>
    <rect x="90.00" y="122.80" width="820.00" height="32.80"/>
    <rect x="90.00" y="155.60" width="820.00" height="32.80"/>
    <rect x="714.76" y="188.40" width="195.24" height="32.80"/>
    <rect x="714.76" y="221.20" width="195.24" height="32.80"/>
    <rect x="714.76" y="254.00" width="195.24" height="32.80"/>
    <rect x="675.71" y="286.80" width="234.29" height="32.80"/>
    <rect x="675.71" y="319.60" width="195.24" height="32.80"/>
    <rect x="636.67" y="352.40" width="234.29" height="32.80"/>
    <rect x="597.62" y="385.20" width="234.29" height="32.80"/>
    <rect x="558.57" y="418.00" width="234.29" height="32.80"/>
    <rect x="519.52" y="450.80" width="234.29" height="32.80"/>
    <rect x="480.48" y="483.60" width="195.24" height="32.80"/>
    <rect x="363.33" y="516.40" width="273.33" height="32.80"/>
    <rect x="363.33" y="549.20" width="195.24" height="32.80"/>
    <rect x="363.33" y="582.00" width="195.24" height="32.80"/>
    <rect x="402.38" y="614.80" width="234.29" height="32.80"/>
    <rect x="480.48" y="647.60" width="195.24" height="32.80"/>
    <rect x="558.57" y="680.40" width="156.19" height="32.80"/>
    <rect x="597.62" y="713.20" width="156.19" height="32.80"/>
    <rect x="636.67" y="746.00" width="156.19" height="32.80"/>
    <rect x="636.67" y="778.80" width="195.24" height="32.80"/>
    <rect x="90.00" y="811.60" width="780.95" height="32.80"/>
    <rect x="90.00" y="844.40" width="780.95" height="32.80"/>
    <rect x="90.00" y="877.20" width="780.95" height="32.80"/>
  </g>
</svg>