<?xml version="1.0" encoding="UTF-8"?>
<svg xmlns="http://www.w3.org/2000/svg" 
     width="1000" height="1000" 
     viewBox="0 0 1000 1000">
  <g fill="#000000">
    <rect x="405.38" y="90.00" width="504.62" height="102.50"/>
    <rect x="279.23" y="192.50" width="189.23" height="102.50"/>
    <rect x="594.62" y="192.50" width="189.23" height="102.50"/>
    <rect x="216.15" y="295.00" width="189.23" height="102.50"/>
    <rect x="594.62" y="295.00" width="189.23" height="102.50"/>
    <rect x="153.08" y="397.50" width="189.23" height="102.50"/>
    <rect x="594.62" y="397.50" width="189.23" height="102.50"/>
    <rect x="153.08" y="500.00" width="189.23" height="102.50"/>
    <rect x="594.62" y="500.00" width="189.23" height="102.50"/>
    <rect x="153.08" y="602.50" width="189.23" height="102.50"/>
    <rect x="594.62" y="602.50" width="189.23" height="102.50"/>
    <rect x="90.00" y="705.00" width="252.31" height="102.50"/>
    <rect x="594.62" y="705.00" width="189.23" height="102.50"/>
    <rect x="90.00" y="807.50" width="252.31" height="102.50"/>
    <rect x="594.62" y="807.50" width="189.23" height="102.50"/>
  </g>
</svg>