<?xml version="1.0" encoding="UTF-8"?>
<svg xmlns="http://www.w3.org/2000/svg" 
     width="1000" height="1000" 
     viewBox="0 0 1000 1000">
  <g fill="#000000">
    <rect x="90.00" y="90.00" width="820.00" height="51.25"/>
    <rect x="90.00" y="141.25" width="820.00" height="51.25"/>
    <rect x="295.00" y="192.50" width="410.00" height="51.25"/>
    <rect x="295.00" y="243.75" width="410.00" height="51.25"/>
    <rect x="295.00" y="295.00" width="410.00" height="51.25"/>
    <rect x="295.00" y="346.25" width="410.00" height="51.25"/>
    <rect x="295.00" y="397.50" width="410.00" height="51.25"/>
    <rect x="295.00" y="448.75" width="615.00" height="51.25"/>
    <rect x="295.00" y="500.00" width="615.00" height="51.25"/>
    <rect x="295.00" y="551.25" width="410.00" height="51.25"/>
    <rect x="295.00" y="602.50" width="410.00" height="51.25"/>
    <rect x="295.00" y="653.75" width="410.00" height="51.25"/>
    <rect x="295.00" y="705.00" width="410.00" height="51.25"/>
    <rect x="295.00" y="756.25" width="410.00" height="51.25"/>
    <rect x="295.00" y="807.50" width="615.00" height="51.25"/>
    <rect x="295.00" y="858.75" width="615.00" height="51.25"/>
  </g>
</svg>