<?xml version="1.0" encoding="UTF-8"?>
<svg xmlns="http://www.w3.org/2000/svg" 
     width="1000" height="1000" 
     viewBox="0 0 1000 1000">
  <g fill="#000000">
    <rect x="675.71" y="90.00" width="234.29" height="48.24"/>
    <rect x="597.62" y="138.24" width="312.38" height="48.24"/>
    <rect x="480.48" y="186.47" width="429.52" height="48.24"/>
    <rect x="441.43" y="234.71" width="195.24" height="48.24"/>
    <rect x="792.86" y="234.71" width="117.14" height="48.24"/>
    <rect x="363.33" y="282.94" width="195.24" height="48.24"/>
    <rect x="324.29" y="331.18" width="195.24" height="48.24"/>
    <rect x="246.19" y="379.41" width="195.24" height="48.24"/>
    <rect x="207.14" y="427.65" width="195.24" height="48.24"/>
    <rect x="168.10" y="475.88" width="195.24" height="48.24"/>
    <rect x="129.05" y="524.12" width="195.24" height="48.24"/>
    <rect x="129.05" y="572.35" width="156.19" height="48.24"/>
    <rect x="90.00" y="620.59" width="195.24" height="48.24"/>
    <rect x="90.00" y="668.82" width="156.19" height="48.24"/>
    <rect x="90.00" y="717.06" width="156.19" height="48.24"/>
    <rect x="792.86" y="717.06" width="117.14" height="48.24"/>
    <rect x="90.00" y="765.29" width="156.19" height="48.24"/>
    <rect x="792.86" y="765.29" width="117.14" height="48.24"/>
    <rect x="90.00" y="813.53" width="820.00" height="48.24"/>
    <rect x="129.05" y="861.76" width="780.95" height="48.24"/>
  </g>
</svg>